<svg width="100" height="100" viewBox="0 0 100 100" fill="none" xmlns="http://www.w3.org/2000/svg">
<rect width="100" height="100" fill="#2D2D2D"/>
<path d="M31.9194 52.84C31.9194 52.104 31.6474 51.4 31.1034 50.728C30.5594 50.024 29.5994 49.624 28.2234 49.528C27.3274 50.616 26.2394 51.16 24.9594 51.16C23.8714 51.16 22.9434 50.776 22.1754 50.008C21.4074 49.24 21.0234 48.296 21.0234 47.176C21.0234 46.056 21.4074 45.112 22.1754 44.344C22.9434 43.576 23.8714 43.192 24.9594 43.192C25.5354 43.192 26.0954 43.352 26.6394 43.672C27.2154 43.992 27.7274 44.376 28.1754 44.824C28.8794 44.792 29.4234 44.68 29.8074 44.488C30.1914 44.296 30.4634 44.072 30.6234 43.816C30.8154 43.528 30.9274 43.208 30.9594 42.856C30.9914 42.504 31.0074 42.152 31.0074 41.8V36.952C31.0074 36.152 30.7514 35.416 30.2394 34.744C29.7594 34.072 28.9274 33.736 27.7434 33.736H17.7114L17.6634 65.416C17.6634 66.056 17.3594 66.552 16.7514 66.904C16.1754 67.224 15.5354 67.384 14.8314 67.384C12.9434 67.384 11.9994 66.616 11.9994 65.08V31.768C11.9994 30.616 12.2874 29.848 12.8634 29.464C13.4714 29.08 14.1914 28.888 15.0234 28.888H28.9434C29.7754 28.888 30.6554 29.048 31.5834 29.368C32.5434 29.688 33.4394 30.12 34.2714 30.664H34.2234C35.0554 31.272 35.6634 32.072 36.0474 33.064C36.4634 34.056 36.6714 35.208 36.6714 36.52V41.944C36.6714 43.224 36.3994 44.28 35.8554 45.112C35.3114 45.912 34.7354 46.552 34.1274 47.032C34.5434 47.288 34.9434 47.56 35.3274 47.848C35.7114 48.104 36.0314 48.392 36.2874 48.712C36.7034 49.16 37.0234 49.688 37.2474 50.296C37.5034 50.904 37.6314 51.624 37.6314 52.456V59.32C37.6314 61.944 36.6074 63.88 34.5594 65.128C33.5354 65.768 32.5594 66.248 31.6314 66.568C30.7354 66.888 29.8394 67.048 28.9434 67.048H21.8394C21.2954 67.048 20.8634 66.824 20.5434 66.376C20.2554 65.928 20.1114 65.336 20.1114 64.6C20.1114 63 20.7834 62.2 22.1274 62.2H28.7034C29.8874 62.2 30.7194 61.864 31.1994 61.192C31.6794 60.52 31.9194 59.768 31.9194 58.936V52.84ZM88.3183 59.32C88.3183 61.912 87.4543 63.848 85.7263 65.128C84.8943 65.736 84.0303 66.216 83.1343 66.568C82.2703 66.888 81.4223 67.048 80.5903 67.048H70.1263C69.2943 67.048 68.4303 66.888 67.5343 66.568C66.6703 66.216 65.8223 65.736 64.9903 65.128C64.1583 64.488 63.5183 63.704 63.0703 62.776C62.6223 61.816 62.3983 60.664 62.3983 59.32V30.952C62.3983 29.416 63.3423 28.648 65.2303 28.648C67.1503 28.648 68.1103 29.416 68.1103 30.952V58.936C68.1103 59.768 68.3503 60.52 68.8303 61.192C69.3103 61.864 70.1423 62.2 71.3263 62.2H79.3903C80.5743 62.2 81.4063 61.864 81.8863 61.192C82.3663 60.52 82.6063 59.768 82.6063 58.936V30.952C82.6063 29.416 83.5503 28.648 85.4383 28.648C87.3583 28.648 88.3183 29.416 88.3183 30.952V59.32Z" fill="white"/>
<path d="M52.4439 28.888C53.2119 28.888 54.0439 29.064 54.9399 29.416C55.8679 29.768 56.7479 30.216 57.5799 30.76H57.5319C58.3639 31.368 59.0039 32.168 59.4519 33.16C59.8999 34.12 60.1239 35.24 60.1239 36.52V41.224C60.1239 42.888 59.4839 44.456 58.2039 45.928C56.9239 47.368 55.0999 48.648 52.7319 49.768C50.2999 50.888 48.4439 52.056 47.1639 53.272C45.9159 54.488 45.2919 55.72 45.2919 56.968V62.2H58.9719C60.1879 62.2 60.8119 62.984 60.8439 64.552C60.9079 66.216 60.2839 67.048 58.9719 67.048H42.6519C41.4359 67.048 40.6359 66.76 40.2519 66.184C39.8679 65.576 39.6759 64.888 39.6759 64.12V56.536C39.6759 54.52 40.2999 52.76 41.5479 51.256C42.7959 49.72 44.6199 48.408 47.0199 47.32C49.3879 46.328 51.2119 45.272 52.4919 44.152C53.8039 43.032 54.4599 41.928 54.4599 40.84V36.952C54.4599 36.152 54.2039 35.416 53.6919 34.744C53.2119 34.072 52.3799 33.736 51.1959 33.736H48.5559C47.3719 33.736 46.5239 34.072 46.0119 34.744C45.5319 35.416 45.2919 36.152 45.2919 36.952V38.872C45.2919 40.376 44.3479 41.128 42.4599 41.128C40.6039 41.128 39.6759 40.376 39.6759 38.872V36.52C39.6759 35.24 39.8999 34.12 40.3479 33.16C40.7959 32.168 41.4199 31.368 42.2199 30.76H42.1719C43.0039 30.216 43.8679 29.768 44.7639 29.416C45.6919 29.064 46.5719 28.888 47.4039 28.888H52.4439Z" fill="white"/>
</svg>
